<svg width="170" height="60" viewBox="0 0 170 60" fill="none" xmlns="http://www.w3.org/2000/svg">
<path d="M133 48.7908C132.678 48.9278 132.329 49 131.958 49C130.655 49 130 48.1414 130 46.4315C130 44.8081 130.655 44 131.958 44C132.329 44 132.678 44.0649 133 44.2092V44.7576C132.678 44.5988 132.345 44.5195 132.007 44.5195C130.987 44.5195 130.48 45.1544 130.48 46.4387C130.48 47.8095 130.987 48.495 132.007 48.495C132.345 48.495 132.678 48.4156 133 48.2496V48.8052V48.7908Z" fill="#554039"/>
<path d="M134 49V44H134.597V46.2003H137.403V44H138V49H137.403V46.7266H134.597V49H134Z" fill="#554039"/>
<path d="M139.014 47.0479V44H139.632V47.0479C139.632 47.9985 140.095 48.4775 141.007 48.4775C141.919 48.4775 142.382 47.9985 142.382 47.0479V44H143V47.0479C143 48.3469 142.333 49 141 49C139.667 49 139 48.3469 139 47.0479H139.014Z" fill="#554039"/>
<path d="M144.006 49V44H145.652C146.385 44 146.752 44.402 146.752 45.1988C146.752 45.8494 146.391 46.3319 145.675 46.6462L147 49H146.34L145.111 46.7485V46.3246C145.85 46.1711 146.216 45.8056 146.216 45.2208C146.216 44.7602 146.013 44.5263 145.602 44.5263H144.502V48.9927H144L144.006 49Z" fill="#554039"/>
<path d="M151 48.7908C150.678 48.9278 150.329 49 149.958 49C148.655 49 148 48.1414 148 46.4315C148 44.8081 148.655 44 149.958 44C150.335 44 150.678 44.0649 151 44.2092V44.7576C150.678 44.5988 150.345 44.5195 150.007 44.5195C148.987 44.5195 148.48 45.1544 148.48 46.4387C148.48 47.8095 148.987 48.495 150.007 48.495C150.345 48.495 150.678 48.4156 151 48.2496V48.8052V48.7908Z" fill="#554039"/>
<path d="M152 49V44H152.597V46.2003H155.403V44H156V49H155.403V46.7266H152.597V49H152Z" fill="#554039"/>
<path d="M140 44.2273L139 44L140 45" fill="white"/>
<path d="M99 47.05V44H99.6228V47.05C99.6228 48 100.087 48.4786 101 48.4786C101.913 48.4786 102.377 48 102.377 47.05V44H103V47.05C103 48.35 102.336 49 101 49C99.6644 49 99 48.35 99 47.05Z" fill="#554039"/>
<path d="M113 48.773C112.699 48.922 112.377 49 112.029 49C110.676 49 110 48.1418 110 46.4326C110 44.8156 110.649 44 111.959 44C112.335 44 112.678 44.0709 113 44.2057V44.7589C112.678 44.5957 112.351 44.5177 112.007 44.5177C110.993 44.5177 110.483 45.156 110.483 46.4326C110.483 47.8014 110.982 48.4823 111.986 48.4823C112.147 48.4823 112.324 48.4539 112.517 48.3972V46.7234H113V48.773Z" fill="#554039"/>
<path d="M114.007 48.9928V44H116.2C117.178 44 117.667 44.4023 117.667 45.1997C117.667 45.8463 117.185 46.3276 116.23 46.6437L118 49H117.119L115.481 46.7514V46.3276C116.467 46.1767 116.956 45.8103 116.956 45.2284C116.956 44.7687 116.681 44.5388 116.133 44.5388H114.667V49H114L114.007 48.9928Z" fill="#554039"/>
<path d="M119 49L120.708 44H121.287L123 49H122.45L121.918 47.4245H120.575L120.719 46.8993H121.721L120.98 44.6691L119.544 49H119.006H119Z" fill="#554039"/>
<path d="M94.2544 48.7905V48.2027C94.7915 48.3851 95.3781 48.4797 96.0071 48.4797C96.8905 48.4797 97.3357 48.1689 97.3357 47.5473C97.3357 47.0203 97.0106 46.7568 96.3534 46.7568H95.6184C94.5371 46.7568 94 46.3108 94 45.4122C94 44.473 94.6926 44 96.0707 44C96.6714 44 97.2297 44.0676 97.7456 44.2095V44.7973C97.2297 44.6149 96.6714 44.5203 96.0707 44.5203C95.1307 44.5203 94.6643 44.8176 94.6643 45.4189C94.6643 45.9459 94.9823 46.2095 95.6184 46.2095H96.3534C97.4488 46.2095 98 46.6554 98 47.5541C98 48.5203 97.3357 49 96 49C95.371 49 94.7915 48.9324 94.2473 48.7905H94.2544Z" fill="#554039"/>
<path d="M104 49V44H104.6L107.433 47.9928V44H108V49H107.4L104.567 45.0072V49H104Z" fill="#554039"/>
<path d="M124.59 44V49H124V44H124.59ZM127.731 44L125.692 46.3309L128 49H127.115L125.095 46.5612V46.1727L126.984 44.0072H127.731V44Z" fill="#554039"/>
<path d="M27 19.41L29.5791 28H30L29.0312 19L27 19.41Z" fill="#C0B2A5"/>
<path d="M24 17.5088L28.703 28L29 27.8527L25.7334 17L24 17.5088Z" fill="#6FA19A"/>
<path d="M19.5331 15C19.2958 15 19.0392 15.0806 18.7634 15.235C18.0962 15.611 18.0064 16.2556 18 16.4302L26.2046 30L27 29.4494L20.0912 15.1947C20.0399 15.1544 19.8603 15.0067 19.5396 15.0067L19.5331 15Z" fill="#C02651"/>
<path d="M21 16.4978L27.1976 28L28 27.615L22.6393 16L21 16.4978Z" fill="#005793"/>
<path d="M35 23.3881L32.406 23L31 33.9012L32.015 34L35 23.3881Z" fill="#908331"/>
<path d="M29 20L30.1488 32L30.6756 31.953L32 20.3086L29 20Z" fill="#72B569"/>
<path d="M36 27.4477L34.5919 27L32 36.6173L32.9595 37L36 27.4477Z" fill="#BEB7A9"/>
<path d="M12 15.3275L24 29L12.4144 15L12 15.3275Z" fill="#4C3215"/>
<path d="M15 21.1704L24 29L15.1559 21L15 21.1704Z" fill="#4C3215"/>
<path d="M9 6.13035L24.9398 29L25 28.9609L9.22752 6L9 6.13035Z" fill="#4C3215"/>
<path d="M41 35.2107L40.3984 35L39.0108 41.3204L39 41.8709L39.3035 42L41 35.2107Z" fill="#92AF2A"/>
<path d="M53 24.2546L52.6573 24L41 43L53 24.2546Z" fill="#4C3215"/>
<path d="M46.2789 31.1897C46.0612 31.0654 45.8027 31 45.517 31C45.3333 31 45.1905 31.0262 45.1088 31.0458L39 43.7383L39.3946 44L47 31.9421C46.9592 31.8178 46.8027 31.4841 46.2857 31.1963L46.2789 31.1897Z" fill="#4F8694"/>
<path d="M37 30.5718L35.6544 30L32 39.5507L33.161 40L37 30.5718Z" fill="#D4872E"/>
<path d="M36.9394 33L33 41.6418L34.1295 42L38 33.4819L36.9394 33Z" fill="#D19B6F"/>
<path d="M37 36L34 44.767L35.563 45L38 36.1864L37 36Z" fill="#FFDD00"/>
<path d="M37.2819 38.6334L37 47L38.7004 46.9736L39 38L37.4493 38.0396L37.2819 38.6334Z" fill="#D2A37B"/>
<path d="M17.5478 13.2771C17.4714 13.0057 17.3567 12.9356 17.2166 13.0582C17.0255 13.2333 17.051 13.3471 17.1529 13.5923L17 15.4747C17 15.571 17.0573 15.7549 17.1147 15.8336C17.1656 15.9037 17.2357 15.965 17.2994 16C17.4268 15.6148 17.6498 15.1858 18.0702 14.8793C18.3887 14.6429 18.6945 14.5204 18.9811 14.5204C18.9811 14.5204 18.9875 14.5204 18.9939 14.5204C19.0385 14.3015 18.8282 14.0038 18.7454 13.9338L17.5542 13.2771H17.5478Z" fill="#C02651"/>
<path d="M46.7828 29.3925C46.9069 29.23 46.8945 29.1156 46.7455 29.0433C46.5407 28.947 46.4849 29.0192 46.3918 29.1818L45.1753 29.7357C45.1195 29.7658 45.0388 29.8862 45.014 29.9584C44.9953 30.0247 44.9953 30.1029 45.014 30.1692C45.3057 30.133 45.6843 30.1571 46.0877 30.3859C46.3918 30.5605 46.6214 30.7592 46.7704 30.988C46.7704 30.988 46.7704 30.994 46.7704 31C46.9255 30.9518 47 30.6809 47 30.5906L46.789 29.3925H46.7828Z" fill="#4F8694"/>
<path d="M61.1143 36.9312L62.3803 35.4938C61.001 34.7974 59.935 33.8838 59.222 32.753C58.4891 31.6221 58.136 30.2486 58.136 28.6769V27.0222H57.9827H55.2709C55.1643 27.0222 54.9178 27.0989 55.071 27.2075C55.1976 27.2969 55.4708 27.3864 55.664 27.5014C55.804 27.5844 55.8239 27.6675 55.8239 27.808V28.5236C55.8239 30.223 55.4242 31.571 54.6913 32.7274C53.8451 34.0563 52.5791 35.0977 51 36.056L52.3792 37.4296C53.292 36.9504 54.2448 36.254 55.091 35.449C55.9372 34.6441 56.6235 33.7496 56.9833 32.9191C57.3431 33.6793 57.9428 34.4907 58.6957 35.2063C59.4286 35.9026 60.2948 36.5096 61.121 36.9249L61.1143 36.9312ZM92.4966 29.418H100.625C100.712 31.488 100.492 34.9507 100.159 37.2571H102.185C102.584 34.2991 102.784 30.6191 102.784 27.61H90.3712C90.3712 27.61 90.5111 28.6705 91.0574 29.1241C91.4772 29.4755 92.5033 29.418 92.5033 29.418H92.4966ZM84.641 26.6069H84.5611H81.9492C81.8426 26.6069 81.5961 26.6836 81.7493 26.7922C81.8759 26.8817 82.1491 26.9711 82.3423 27.0861C82.4689 27.1628 82.4956 27.2267 82.5023 27.3353V38.2729H84.641V32.9574H87.4395V31.1302H84.641V26.6005V26.6069ZM113.545 36.861C115.344 36.3371 116.616 34.7527 116.616 32.8744C116.616 31.6733 116.037 30.6127 115.151 29.8716H117.509V28.1339H113.465V26H110.686C110.58 26 110.333 26.0767 110.486 26.1853C110.613 26.2747 110.886 26.3642 111.079 26.4792C111.246 26.575 111.246 26.6708 111.246 26.8561V27.1819V28.1275H106.975V29.8652H109.4C108.554 30.6063 107.981 31.6733 107.981 32.868C107.981 34.8485 109.38 36.5032 111.293 36.9376V38.5732C110.673 38.5923 110.047 38.5923 109.494 38.5923H106.316V40.3109L110.273 40.2854C113.165 40.2662 117.169 40.0043 118.902 39.7615V38.0876C117.656 38.241 115.63 38.3687 113.565 38.4773V36.8418L113.545 36.861ZM109.854 32.8105C109.854 31.4816 111.013 30.3699 112.279 30.3699C113.545 30.3699 114.704 31.4816 114.704 32.8105C114.704 34.1393 113.551 35.2254 112.279 35.2254C111.006 35.2254 109.854 34.1138 109.854 32.8105ZM98.6065 33.7688H96.6276V39.1673H93.9824V33.7688H92.0036V39.1673H87.5594V40.9754H103.87V40.9626C104.203 40.937 104.61 40.8731 104.836 40.6815C105.376 40.2279 105.516 39.1737 105.516 39.1737H98.6132V33.7688H98.6065ZM122 41.2054V26.6261H121.94H119.328C119.222 26.6261 118.975 26.7028 119.128 26.8114C119.255 26.9008 119.528 26.9903 119.721 27.1053C119.888 27.2011 119.888 27.2969 119.888 27.4822V27.8144V43.1731V43.2114C119.888 43.2114 121.127 43.0773 121.66 42.5662C121.893 42.3426 121.967 41.9401 121.993 41.6334V41.5887C122.007 41.3715 121.993 41.2054 121.993 41.2054H122ZM81.1963 35.0082C79.0842 35.2893 76.0126 35.5321 74.147 35.5321H72.3879V33.0916H78.278V27.3033H69.8427C69.8427 27.3033 69.976 28.3064 70.489 28.7408C70.6889 28.9133 71.0287 28.9772 71.3285 29.0027V29.0155H76.0792V31.456H70.1825V37.289H72.8077C75.4063 37.289 79.3707 37.0079 81.1897 36.6821V35.0082H81.1963ZM84.641 44.1314V39.3015H73.7872V41.0392H82.4823V46.1375V46.1886C82.4823 46.1886 83.7416 46.0545 84.2879 45.5306C84.7143 45.1281 84.6344 44.1378 84.6344 44.1378L84.641 44.1314ZM64.0526 26.7667C64.1792 26.8561 64.4524 26.9455 64.6456 27.0605C64.7722 27.1372 64.7989 27.2075 64.8056 27.3225V30.0824H61.0477V31.8905H64.8056V38.4646H66.9444V26.575H64.2525C64.1459 26.575 63.8994 26.6517 64.0526 26.7603V26.7667ZM61.7606 38.2282C59.1621 38.2282 57.0233 40.1895 57.0233 42.6237C57.0233 45.0578 59.1554 47 61.7606 47C64.3658 47 66.4979 45.0386 66.4979 42.6237C66.4979 40.2087 64.3858 38.2282 61.7606 38.2282ZM61.694 45.192C60.2281 45.192 59.1154 44.042 59.1154 42.6237C59.1154 41.2054 60.2948 40.0298 61.7606 40.0298C63.2264 40.0298 64.3591 41.1862 64.3591 42.6237C64.3591 44.0611 63.1598 45.192 61.694 45.192Z" fill="#554039"/>
</svg>
