<svg width="20" height="20" viewBox="0 0 20 20" fill="none" xmlns="http://www.w3.org/2000/svg">
<path d="M9.99493 12.2124C11.2175 12.2124 12.2086 11.2214 12.2086 9.99877C12.2086 8.77619 11.2175 7.7851 9.99493 7.7851C8.77235 7.7851 7.78125 8.77619 7.78125 9.99877C7.78125 11.2214 8.77235 12.2124 9.99493 12.2124Z" fill="#AAAAAA"/>
<path d="M12.9915 2.99997H7.00855C4.79487 2.99997 3 4.79484 3 7.00852V12.9914C3 15.2051 4.79487 17 7.00855 17H12.9915C15.2051 17 17 15.2051 17 12.9914V7.00852C17 4.79484 15.2051 2.99997 12.9915 2.99997ZM10 13.4701C8.08547 13.4701 6.52991 11.9145 6.52991 9.99997C6.52991 8.08544 8.08547 6.52988 10 6.52988C11.9145 6.52988 13.4701 8.08544 13.4701 9.99997C13.4701 11.9145 11.9145 13.4701 10 13.4701ZM13.7692 7.12817C13.2906 7.12817 12.8718 6.70937 12.8718 6.23074C12.8718 5.75211 13.2906 5.3333 13.7692 5.3333C14.2479 5.3333 14.6667 5.75211 14.6667 6.23074C14.6667 6.7692 14.2479 7.12817 13.7692 7.12817Z" fill="#AAAAAA"/>
</svg>
