<svg width="40" height="40" viewBox="0 0 40 40" fill="none" xmlns="http://www.w3.org/2000/svg">
<path d="M7.89042 32C7.77336 32.0005 7.65735 31.9776 7.54911 31.9326C7.44087 31.8876 7.34253 31.8214 7.25975 31.7379C7.17697 31.6544 7.11141 31.5552 7.06683 31.446C7.02225 31.3368 6.99954 31.2197 7.00001 31.1016V7.44249C7.00095 6.53039 7.36024 5.65589 7.99915 5.01061C8.63806 4.36532 9.50448 4.0019 10.4085 4H32.1096C32.3457 4 32.5722 4.09465 32.7392 4.26312C32.9062 4.4316 33 4.6601 33 4.89836V28.5611C33 28.7993 32.9062 29.0278 32.7392 29.1963C32.5722 29.3648 32.3457 29.4594 32.1096 29.4594H10.4085C9.97711 29.4604 9.56364 29.6337 9.2586 29.9415C8.95355 30.2492 8.78177 30.6664 8.78083 31.1016C8.78083 31.2196 8.7578 31.3364 8.71305 31.4454C8.6683 31.5544 8.60271 31.6534 8.52003 31.7369C8.43735 31.8203 8.33919 31.8865 8.23116 31.9316C8.12313 31.9768 8.00735 32 7.89042 32ZM10.4085 5.79671C9.97649 5.79767 9.56249 5.97148 9.25735 6.28002C8.9522 6.58856 8.78083 7.00662 8.78083 7.44249V28.0796C9.28027 27.8054 9.83992 27.6621 10.4085 27.6627H31.2192V5.79671H10.4085Z" fill="#231815"/>
<path d="M32.1052 35H10.3153C9.42634 34.9706 8.58335 34.589 7.96464 33.9358C7.34593 33.2827 7 32.4092 7 31.5C7 30.5908 7.34593 29.7173 7.96464 29.0642C8.58335 28.411 9.42634 28.0294 10.3153 28H32.1052C32.2666 28.0003 32.425 28.0453 32.5634 28.1302C32.7019 28.215 32.8153 28.3367 32.8915 28.4821C32.9678 28.6275 33.0041 28.7913 32.9967 28.9562C32.9892 29.121 32.9382 29.2807 32.8491 29.4183C32.4452 30.0334 32.2295 30.7574 32.2295 31.4982C32.2295 32.239 32.4452 32.963 32.8491 33.5781C32.9391 33.7157 32.9909 33.8758 32.9989 34.0411C33.0069 34.2065 32.9708 34.371 32.8944 34.5171C32.818 34.6631 32.7042 34.7851 32.5652 34.8702C32.4262 34.9553 32.2672 35.0001 32.1052 35ZM10.3153 29.8277C9.89465 29.8478 9.49769 30.0328 9.20693 30.3442C8.91617 30.6556 8.75395 31.0695 8.75395 31.5C8.75395 31.9305 8.91617 32.3444 9.20693 32.6558C9.49769 32.9672 9.89465 33.1522 10.3153 33.1723H30.6998C30.3637 32.0839 30.3637 30.9161 30.6998 29.8277H10.3153Z" fill="#231815"/>
<path d="M27 11H13V12H27V11Z" fill="#88629B"/>
</svg>
