<svg width="41" height="41" viewBox="0 0 41 41" fill="none" xmlns="http://www.w3.org/2000/svg">
<path d="M20.5 27C18.5118 26.9969 16.6059 26.1811 15.2001 24.7316C13.7942 23.2821 13.0031 21.3171 13 19.2672V11.7328C13 9.6819 13.7902 7.71504 15.1967 6.26486C16.6032 4.81469 18.5109 4 20.5 4C22.4891 4 24.3968 4.81469 25.8033 6.26486C27.2098 7.71504 28 9.6819 28 11.7328V19.2672C27.9969 21.3171 27.2058 23.2821 25.7999 24.7316C24.3941 26.1811 22.4882 26.9969 20.5 27ZM20.5 5.98276C19.0215 5.98486 17.6042 6.59133 16.5588 7.6692C15.5133 8.74708 14.9251 10.2084 14.9231 11.7328V19.2672C14.9231 20.7922 15.5106 22.2548 16.5565 23.3331C17.6024 24.4114 19.0209 25.0172 20.5 25.0172C21.9791 25.0172 23.3976 24.4114 24.4435 23.3331C25.4894 22.2548 26.0769 20.7922 26.0769 19.2672V11.7328C26.0749 10.2084 25.4867 8.74708 24.4412 7.6692C23.3958 6.59133 21.9785 5.98486 20.5 5.98276Z" fill="#231815"/>
<path d="M21 37C20.7348 37 20.4804 36.8997 20.2929 36.7211C20.1054 36.5424 20 36.3002 20 36.0476V29.9524C20 29.6998 20.1054 29.4576 20.2929 29.2789C20.4804 29.1003 20.7348 29 21 29C21.2652 29 21.5196 29.1003 21.7071 29.2789C21.8946 29.4576 22 29.6998 22 29.9524V36.0476C22 36.3002 21.8946 36.5424 21.7071 36.7211C21.5196 36.8997 21.2652 37 21 37Z" fill="#231815"/>
<path d="M20.5 31C13.6072 31 8 25.168 8 18C8 17.7348 8.10452 17.4804 8.29057 17.2929C8.47662 17.1054 8.72895 17 8.99206 17C9.25517 17 9.50751 17.1054 9.69356 17.2929C9.8796 17.4804 9.98413 17.7348 9.98413 18C9.98413 24.064 14.7024 29 20.5 29C26.2976 29 31.0159 24.064 31.0159 18C31.0159 17.7348 31.1204 17.4804 31.3064 17.2929C31.4925 17.1054 31.7448 17 32.0079 17C32.271 17 32.5234 17.1054 32.7094 17.2929C32.8955 17.4804 33 17.7348 33 18C33 25.156 27.3929 31 20.5 31Z" fill="#88629B"/>
</svg>
