<svg width="41" height="40" viewBox="0 0 41 40" fill="none" xmlns="http://www.w3.org/2000/svg">
<path d="M10.2751 35C10.2571 35 10.2391 35 10.221 35C8.41394 34.8889 7 33.344 7 31.4843V5.92615C7 5.41492 7.40398 5 7.90175 5H31.0983C31.596 5 32 5.41492 32 5.92615V27.4092C32 27.9205 31.596 28.3354 31.0983 28.3354H18.6506C17.0743 32.6142 14.1959 34.9148 10.2968 35C10.2896 35 10.286 35 10.2787 35H10.2751ZM8.80349 6.85231V31.4843C8.80349 32.3549 9.45636 33.0773 10.2968 33.1477C13.5791 33.0625 15.8876 31.0324 17.1573 27.1166C17.2799 26.7387 17.6262 26.4831 18.0121 26.4831H30.1965V6.85231H8.80349Z" fill="#231815"/>
<path d="M11.1625 35H10.8375C10.3752 35 10 34.5538 10 34.004C10 33.4542 10.3752 33.008 10.8375 33.008H10.8911C10.928 33.004 10.9615 33 10.9983 33C11.0218 33 11.0452 33 11.0687 33H11.1089C11.1256 33.004 11.1457 33.008 11.1625 33.008C11.6248 33.008 12 33.4542 12 34.004C12 34.5538 11.6248 35 11.1625 35Z" fill="#231815"/>
<path d="M27.1227 35H11.0477C10.9861 35 10.9281 35 10.8665 34.993C10.3808 34.9652 9.98935 34.5724 10.0002 34.1065C10.0111 33.6406 10.3844 33.2651 10.8701 33.2547C14.1902 33.1886 16.5208 31.2834 17.8039 27.5945C17.9272 27.2399 18.2751 27 18.663 27H35.0932C35.3831 27 35.6586 27.1356 35.8289 27.3616C35.9993 27.5876 36.0464 27.8796 35.9522 28.1439C34.3936 32.6289 31.3417 35 27.1227 35ZM16.0859 33.2616H27.1227C30.1674 33.2616 32.4001 31.7423 33.7738 28.7384H19.3045C18.5325 30.6958 17.4487 32.2116 16.0895 33.2616H16.0859Z" fill="#231815"/>
<path d="M19.9193 17.9792H11.5273V11.5601H19.9193V17.9792ZM12.9996 16.5069H18.4471V13.0323H12.9996V16.5069Z" fill="#88629B"/>
<path d="M28.3054 11.5601H22.0703V13.0323H28.3054V11.5601Z" fill="#88629B"/>
<path d="M28.3054 16.5068H22.0703V17.9791H28.3054V16.5068Z" fill="#88629B"/>
<path d="M28.3037 21.4537H11.5234V22.926H28.3037V21.4537Z" fill="#88629B"/>
</svg>
