<svg width="22" height="22" viewBox="0 0 22 22" fill="none" xmlns="http://www.w3.org/2000/svg">
<g clip-path="url(#clip0_245_9122)">
<path d="M19.8271 6.70883C19.6049 5.87245 18.9505 5.21373 18.1195 4.99019C16.6133 4.58398 10.5736 4.58398 10.5736 4.58398C10.5736 4.58398 4.53391 4.58398 3.02767 4.99019C2.19669 5.21377 1.54222 5.87245 1.32009 6.70883C0.916504 8.22483 0.916504 11.3878 0.916504 11.3878C0.916504 11.3878 0.916504 14.5508 1.32009 16.0668C1.54222 16.9032 2.19669 17.5345 3.02767 17.758C4.53391 18.1642 10.5736 18.1642 10.5736 18.1642C10.5736 18.1642 16.6133 18.1642 18.1195 17.758C18.9505 17.5345 19.6049 16.9032 19.8271 16.0668C20.2307 14.5508 20.2307 11.3878 20.2307 11.3878C20.2307 11.3878 20.2307 8.22483 19.8271 6.70883ZM8.59826 14.2596V8.51607L13.6463 11.3879L8.59826 14.2596Z" fill="white"/>
</g>
<defs>
<clipPath id="clip0_245_9122">
<rect width="22" height="22" fill="white"/>
</clipPath>
</defs>
</svg>
