<svg width="20" height="20" viewBox="0 0 20 20" fill="none" xmlns="http://www.w3.org/2000/svg">
<path d="M3.63653 7.83267C3.63653 7.83267 2.99686 7.83267 2.42224 8.39644V6.13049H1.00195V12.061H2.44392V11.5948C2.44392 11.5948 2.78002 12.2019 3.63653 12.2019C3.63653 12.2019 5.64227 12.126 5.64227 9.9902C5.64227 10.001 5.56638 7.83267 3.63653 7.83267ZM3.32211 10.9551C2.81255 10.9551 2.4114 10.5431 2.4114 10.0444C2.4114 9.53484 2.82339 9.13369 3.32211 9.13369C3.83168 9.13369 4.23283 9.54568 4.23283 10.0444C4.23283 10.554 3.83168 10.9551 3.32211 10.9551Z" fill="#AAAAAA"/>
<path d="M6.09766 6V7.37692C6.09766 7.37692 6.74817 7.34439 6.74817 8.55868V12.0714H8.12509V8.22258C8.11424 8.22258 8.1793 6 6.09766 6Z" fill="#AAAAAA"/>
<path d="M11.474 7.84305C11.474 7.84305 9.12136 7.84305 9.12136 10.0439C9.12136 10.0439 9.04546 12.2123 11.474 12.2123C11.474 12.2123 13.8809 12.2123 13.8809 10.0439C13.8809 10.0439 13.9568 7.84305 11.474 7.84305ZM11.474 10.9547C10.9645 10.9547 10.5633 10.5427 10.5633 10.0439C10.5633 9.53438 10.9753 9.13323 11.474 9.13323C11.9836 9.13323 12.3848 9.54522 12.3848 10.0439C12.3848 10.5535 11.9728 10.9547 11.474 10.9547Z" fill="#AAAAAA"/>
<path d="M17.8069 7.99527V8.38558C17.8069 8.38558 17.3949 7.84349 16.6143 7.84349C16.6143 7.84349 14.5977 7.75675 14.5977 10.0227C14.5977 10.0227 14.576 12.1369 16.56 12.1369C16.56 12.1369 17.3623 12.1694 17.8069 11.5948V11.9309C17.8069 11.9309 17.9044 12.9717 16.8961 12.9717H16.5492V14.2293H17.1021C17.1021 14.2293 19.1838 14.251 19.1838 12.0068V7.99527H17.8069ZM16.9504 10.9551C16.4408 10.9551 16.0396 10.5431 16.0396 10.0444C16.0396 9.53482 16.4516 9.13367 16.9504 9.13367C17.4599 9.13367 17.8611 9.54566 17.8611 10.0444C17.8719 10.554 17.4599 10.9551 16.9504 10.9551Z" fill="#AAAAAA"/>
</svg>
