<svg width="40" height="41" viewBox="0 0 40 41" fill="none" xmlns="http://www.w3.org/2000/svg">
<path d="M15.0155 16.9968C14.7674 17.0176 14.5213 16.9367 14.3314 16.7719C14.1416 16.607 14.0235 16.3718 14.0031 16.1179C13.9828 15.8639 14.0619 15.6121 14.2229 15.4179C14.384 15.2236 14.6139 15.1027 14.8621 15.0819L32.8831 12.0181C33.0059 11.9933 33.1324 11.994 33.2551 12.0201C33.3777 12.0462 33.4939 12.0973 33.5969 12.1702C33.6999 12.2432 33.7875 12.3365 33.8546 12.4448C33.9216 12.553 33.9668 12.6739 33.9873 12.8003C34.0079 12.9268 34.0034 13.0561 33.9742 13.1808C33.945 13.3054 33.8916 13.4227 33.8173 13.5259C33.7429 13.629 33.6491 13.7158 33.5413 13.7811C33.4336 13.8465 33.3141 13.889 33.19 13.9062L15.169 16.97C15.1185 16.9825 15.0672 16.9915 15.0155 16.9968Z" fill="#88629B"/>
<path d="M11 35C8.24444 35 6 32.9804 6 30.5C6 28.0196 8.24444 26 11 26C13.7556 26 16 28.0196 16 30.5C16 32.9804 13.7556 35 11 35ZM11 27.8C9.26296 27.8 7.85185 29.0096 7.85185 30.5C7.85185 31.9904 9.26296 33.2 11 33.2C12.737 33.2 14.1481 31.9904 14.1481 30.5C14.1481 29.0096 12.737 27.8 11 27.8Z" fill="#231815"/>
<path d="M14.9407 31C14.6912 31 14.4519 30.9017 14.2755 30.7268C14.0991 30.5519 14 30.3146 14 30.0672V9.9191C13.9997 9.69798 14.0785 9.48394 14.2226 9.31515C14.3666 9.14635 14.5664 9.03378 14.7864 8.99752L32.9036 6.01261C33.1501 5.97204 33.4028 6.03023 33.606 6.17437C33.8092 6.31851 33.9464 6.53681 33.9873 6.78123C34.0282 7.02565 33.9695 7.27617 33.8242 7.47769C33.6788 7.67921 33.4587 7.81521 33.2122 7.85578L15.8813 10.7101V30.0672C15.8813 30.3146 15.7822 30.5519 15.6058 30.7268C15.4294 30.9017 15.1901 31 14.9407 31Z" fill="#231815"/>
<path d="M29 32C26.2444 32 24 29.9804 24 27.5C24 25.0196 26.2444 23 29 23C31.7556 23 34 25.0196 34 27.5C34 29.9804 31.763 32 29 32ZM29 24.8C27.2667 24.8 25.8519 26.0096 25.8519 27.5C25.8519 28.9904 27.2667 30.2 29 30.2C30.7333 30.2 32.1481 28.9904 32.1481 27.5C32.1481 26.0096 30.737 24.8 29 24.8Z" fill="#231815"/>
<path d="M33 28C32.7348 28 32.4804 27.9018 32.2929 27.727C32.1054 27.5522 32 27.315 32 27.0678V6.9322C32 6.68497 32.1054 6.44786 32.2929 6.27304C32.4804 6.09822 32.7348 6 33 6C33.2652 6 33.5196 6.09822 33.7071 6.27304C33.8946 6.44786 34 6.68497 34 6.9322V27.0678C34 27.315 33.8946 27.5522 33.7071 27.727C33.5196 27.9018 33.2652 28 33 28Z" fill="#231815"/>
</svg>
