<svg width="20" height="20" viewBox="0 0 20 20" fill="none" xmlns="http://www.w3.org/2000/svg">
<g clip-path="url(#clip0_473_9169)">
<path d="M18.0254 6.09867C17.8235 5.33832 17.2285 4.73949 16.4731 4.53627C15.1038 4.16699 9.61314 4.16699 9.61314 4.16699C9.61314 4.16699 4.12253 4.16699 2.75322 4.53627C1.99779 4.73952 1.40282 5.33832 1.20088 6.09867C0.833984 7.47686 0.833984 10.3523 0.833984 10.3523C0.833984 10.3523 0.833984 13.2278 1.20088 14.6059C1.40282 15.3663 1.99779 15.9402 2.75322 16.1434C4.12253 16.5127 9.61314 16.5127 9.61314 16.5127C9.61314 16.5127 15.1038 16.5127 16.4731 16.1434C17.2285 15.9402 17.8235 15.3663 18.0254 14.6059C18.3923 13.2278 18.3923 10.3523 18.3923 10.3523C18.3923 10.3523 18.3923 7.47686 18.0254 6.09867ZM7.8174 12.963V7.74161L12.4065 10.3524L7.8174 12.963Z" fill="#AAAAAA"/>
</g>
<defs>
<clipPath id="clip0_473_9169">
<rect width="20" height="20" fill="white"/>
</clipPath>
</defs>
</svg>
