<svg width="24" height="24" viewBox="0 0 24 24" fill="none" xmlns="http://www.w3.org/2000/svg">
<path d="M12.3139 6.18339L11.6641 5.55294C11.5296 5.42244 11.4001 5.29739 11.2744 5.17592C11.0546 4.96357 10.846 4.76212 10.6414 4.56147C9.00066 2.95369 6.7423 2.49849 4.93293 3.27973L4.93277 3.2798C3.11901 4.06251 1.85696 6.05597 1.90105 8.2878L1.90105 8.28786C1.93436 9.97971 2.64321 11.4799 3.67628 12.9641L3.67657 12.9645C5.9314 16.2078 8.9903 18.6439 12.2533 21.0299C14.6307 19.2989 16.895 17.5126 18.8502 15.3974L19.5111 16.0083L18.8502 15.3974C20.5093 13.6026 21.8745 11.7872 22.4325 9.53915L22.4325 9.53892C23.0206 7.1723 22.0148 4.70673 20.1001 3.55457L12.3139 6.18339ZM12.3139 6.18339L12.9405 5.52977M12.3139 6.18339L12.9405 5.52977M12.9405 5.52977C13.0846 5.37941 13.212 5.24131 13.3317 5.11147C13.5615 4.86227 13.7632 4.64348 14.0019 4.42673L14.0022 4.42642M12.9405 5.52977L14.0022 4.42642M14.0022 4.42642C15.8652 2.73247 18.2782 2.45896 20.0999 3.55448L14.0022 4.42642ZM12.0872 21.1506C12.0874 21.1504 12.0877 21.1502 12.0879 21.15C12.0877 21.1502 12.0875 21.1504 12.0873 21.1505L12.0872 21.1506ZM12.1764 21.1003L12.1834 21.1C12.1896 21.0998 12.2037 21.0998 12.2249 21.1022C12.2452 21.1046 12.2813 21.1103 12.3277 21.1254C12.3732 21.1402 12.444 21.1691 12.5214 21.2255L12.1764 21.1003Z" stroke="#222222" stroke-width="1.8"/>
</svg>
