<svg width="48" height="48" viewBox="0 0 48 48" fill="none" xmlns="http://www.w3.org/2000/svg">
<rect width="48" height="48" fill="white"/>
<path d="M14.0775 27.2833L16.1345 30.7333C16.2716 30.95 16.5288 31.0333 16.7688 30.95L18.4122 30.3066C18.9782 30.085 19.6058 30.1839 20.1322 30.4877V30.4877C20.678 30.8026 21.1091 31.3187 21.1979 31.9424L21.4314 33.5833C21.4828 33.8167 21.6885 34 21.9456 34H26.0597C26.3168 34 26.5225 33.8167 26.574 33.5667L26.8083 31.9201C26.8967 31.2989 27.3174 30.7851 27.8621 30.4737V30.4737C28.3926 30.1705 29.0289 30.069 29.5979 30.2918L31.2366 30.9333C31.4766 31.0167 31.7337 30.9333 31.8708 30.7167L33.9279 27.2667C34.065 27.05 33.9964 26.7833 33.8079 26.6167L32.404 25.5527C31.9283 25.1921 31.6994 24.5969 31.6994 24V24V24C31.6994 23.3876 31.9288 22.7909 32.4168 22.421L33.8079 21.3667C33.9964 21.2167 34.065 20.9333 33.9279 20.7167L31.8708 17.2667C31.7337 17.05 31.4766 16.9667 31.2366 17.05L29.5931 17.6934C29.0271 17.9151 28.3996 17.8161 27.8731 17.5123V17.5123C27.3274 17.1974 26.8963 16.6813 26.8075 16.0576L26.574 14.4167C26.5225 14.1833 26.3168 14 26.0597 14H21.9456C21.6885 14 21.4828 14.1833 21.4314 14.4333L21.1952 16.0928C21.108 16.706 20.6872 17.2142 20.1448 17.5133V17.5133C19.608 17.8093 18.9731 17.913 18.4023 17.6896L16.7688 17.05C16.5288 16.9667 16.2716 17.05 16.1345 17.2667L14.0775 20.7167C13.9403 20.9333 14.0089 21.2 14.1975 21.3667L15.5871 22.4199C16.0722 22.7875 16.2888 23.3913 16.2888 24V24V24C16.2888 24.6124 16.0594 25.2091 15.5714 25.579L14.1803 26.6333C13.9918 26.8 13.9403 27.0667 14.0775 27.2833ZM24.0027 21.15C25.614 21.15 26.934 22.4333 26.934 24C26.934 25.5667 25.614 26.85 24.0027 26.85C22.3913 26.85 21.0714 25.5667 21.0714 24C21.0714 22.4333 22.3913 21.15 24.0027 21.15Z" stroke="#222222" stroke-width="2"/>
</svg>
