<svg width="26" height="26" viewBox="0 0 26 26" fill="none" xmlns="http://www.w3.org/2000/svg">
<path d="M20.0051 9.44821C20.0051 13.5637 12.6631 21.6683 12.6631 21.6683C12.6631 21.6683 5.31763 13.5637 5.31763 9.44821C5.31763 5.33276 8.60639 2 12.6596 2C16.7128 2 20.0051 5.33637 20.0051 9.44821Z" stroke="#222222" stroke-width="1.4" stroke-miterlimit="10" stroke-linecap="round" stroke-linejoin="round"/>
<path d="M14.7676 19.1616C13.5801 20.6549 12.6593 21.672 12.6593 21.672C12.6593 21.672 11.7384 20.6549 10.5509 19.1616C7.64258 19.4935 4.5271 20.489 4.5271 21.6684C4.5271 23.1184 8.71987 24.2942 12.6593 24.2942C16.5987 24.2942 20.7915 23.1184 20.7915 21.6684C20.795 20.489 17.6795 19.4935 14.7676 19.1616Z" stroke="#222222" stroke-width="1.4" stroke-miterlimit="10" stroke-linecap="round" stroke-linejoin="round"/>
<path d="M12.6595 12.0739C14.089 12.0739 15.2479 10.8983 15.2479 9.44808C15.2479 7.99788 14.089 6.82227 12.6595 6.82227C11.23 6.82227 10.0712 7.99788 10.0712 9.44808C10.0712 10.8983 11.23 12.0739 12.6595 12.0739Z" stroke="#222222" stroke-width="1.4" stroke-miterlimit="10" stroke-linecap="round" stroke-linejoin="round"/>
</svg>
