<svg width="20" height="20" viewBox="0 0 20 20" fill="none" xmlns="http://www.w3.org/2000/svg">
<path d="M10.5524 6.15789C10.081 6.15789 9.60952 6.21428 9.19048 6.32706V5.31203V5.19924V5.14285C9.08571 3.90225 8.19524 3 7.09524 3C5.99524 3 5.10476 3.90225 5 5.14285V9.37218V12.0789V12.1353C5.05238 15.406 7.4619 18 10.5 18C13.5381 18 16 15.3496 16 12.0789C16 8.80827 13.5905 6.15789 10.5524 6.15789ZM10.5524 17.0977C7.98571 17.0977 5.89047 14.8421 5.89047 12.0789V5.25564C5.89047 4.52256 6.46667 3.90225 7.09524 3.90225C7.77619 3.90225 8.3 4.52256 8.3 5.25564V12.0226C8.3 13.3195 9.29524 14.4474 10.5 14.4474C11.7048 14.4474 12.7 13.3759 12.7 12.0789C12.7 10.782 11.7048 9.71052 10.5 9.71052C9.97619 9.71052 9.50476 9.8797 9.1381 10.218V9.20301C9.55714 8.97744 10.0286 8.86466 10.5 8.86466C12.1762 8.86466 13.4857 10.3308 13.4857 12.0789C13.4857 13.8271 12.1238 15.2932 10.5 15.2932C8.82381 15.2932 7.51429 13.8271 7.51429 12.0789V5.19924C7.51429 4.97368 7.30476 4.74812 7.09524 4.74812C6.88571 4.74812 6.67619 4.97368 6.67619 5.19924V12.0789C6.67619 12.1917 6.67619 12.3045 6.67619 12.3609C6.83333 14.5038 8.50952 16.1955 10.5 16.1955C12.6476 16.1955 14.3762 14.3346 14.3762 12.0226C14.3762 9.71053 12.6476 7.90601 10.5524 7.90601C10.081 7.90601 9.60952 8.0188 9.19048 8.18797V7.28571C9.60952 7.17293 10.081 7.06015 10.5524 7.06015C13.119 7.06015 15.2143 9.31579 15.2143 12.0789C15.2143 14.8421 13.119 17.0977 10.5524 17.0977ZM9.19048 12.0789C9.19048 11.2895 9.81905 10.6128 10.5524 10.6128C11.2857 10.6128 11.9143 11.2895 11.9143 12.0789C11.9143 12.8684 11.2857 13.5451 10.5524 13.5451C9.76667 13.5451 9.19048 12.8684 9.19048 12.0789Z" fill="#AAAAAA"/>
</svg>
