<svg width="22" height="22" viewBox="0 0 22 22" fill="none" xmlns="http://www.w3.org/2000/svg">
<path d="M10.9966 13.4336C12.3414 13.4336 13.4316 12.3434 13.4316 10.9985C13.4316 9.65368 12.3414 8.56348 10.9966 8.56348C9.65173 8.56348 8.56152 9.65368 8.56152 10.9985C8.56152 12.3434 9.65173 13.4336 10.9966 13.4336Z" fill="white"/>
<path d="M14.2904 3.2998H7.70921C5.27416 3.2998 3.2998 5.27416 3.2998 7.70921V14.2904C3.2998 16.7254 5.27416 18.6998 7.70921 18.6998H14.2904C16.7254 18.6998 18.6998 16.7254 18.6998 14.2904V7.70921C18.6998 5.27416 16.7254 3.2998 14.2904 3.2998ZM10.9998 14.8169C8.89382 14.8169 7.18271 13.1058 7.18271 10.9998C7.18271 8.89382 8.89382 7.18271 10.9998 7.18271C13.1058 7.18271 14.8169 8.89382 14.8169 10.9998C14.8169 13.1058 13.1058 14.8169 10.9998 14.8169ZM15.146 7.84083C14.6195 7.84083 14.1588 7.38015 14.1588 6.85365C14.1588 6.32715 14.6195 5.86647 15.146 5.86647C15.6725 5.86647 16.1331 6.32715 16.1331 6.85365C16.1331 7.44596 15.6725 7.84083 15.146 7.84083Z" fill="white"/>
</svg>
