<svg width="24" height="24" viewBox="0 0 24 24" fill="none" xmlns="http://www.w3.org/2000/svg">
<mask id="mask0_858_10282" style="mask-type:luminance" maskUnits="userSpaceOnUse" x="0" y="0" width="24" height="24">
<path d="M24 0H0V24H24V0Z" fill="white"/>
</mask>
<g mask="url(#mask0_858_10282)">
<path d="M2.62977 3.24977H10.3798C10.7198 3.24977 10.9998 2.96977 10.9998 2.62977C10.9998 2.28977 10.7198 2.00977 10.3798 2.00977H2.62977C2.28977 2.00977 2.00977 2.28977 2.00977 2.62977C2.00977 2.96977 2.28977 3.24977 2.62977 3.24977Z" fill="#B4B1C0"/>
<path d="M2.62977 7.2107H10.3798C10.7198 7.2107 10.9998 6.9307 10.9998 6.5907C10.9998 6.2507 10.7198 5.9707 10.3798 5.9707H2.62977C2.28977 5.9707 2.00977 6.2507 2.00977 6.5907C2.00977 6.9307 2.28977 7.2107 2.62977 7.2107Z" fill="#B4B1C0"/>
<path d="M10.9998 10.5497C10.9998 10.2097 10.7198 9.92969 10.3798 9.92969H2.62977C2.28977 9.92969 2.00977 10.2097 2.00977 10.5497C2.00977 10.8897 2.28977 11.1697 2.62977 11.1697H10.3798C10.7198 11.1697 10.9998 10.8897 10.9998 10.5497Z" fill="#B4B1C0"/>
<path d="M21.8403 3.89883C21.8203 3.82883 21.7303 3.77883 21.6703 3.82883C18.8503 5.90883 16.2503 6.09883 13.6603 5.92883C13.6603 5.92883 13.5803 5.92883 13.5303 5.92883C13.0503 6.00883 12.7403 6.46883 12.8203 6.93883L14.3203 15.4888C13.7203 15.2688 13.0403 15.1688 12.3303 15.2588C10.2403 15.5288 8.7403 17.2488 8.9803 19.0988C9.2203 20.9488 11.1103 22.2288 13.2003 21.9588C15.2903 21.6888 16.7903 19.9688 16.5503 18.1188C16.5503 18.1088 16.5503 18.0988 16.5503 18.0888C16.5503 18.0888 16.5503 18.0788 16.5503 18.0688L15.1503 10.0588C16.5503 10.1588 17.7903 10.0588 18.8303 9.65883C21.3803 8.68883 22.4103 6.17883 21.8403 3.89883Z" fill="#B4B1C0"/>
</g>
</svg>
